<?xml version="1.0" standalone="no"?><!DOCTYPE svg PUBLIC "-//W3C//DTD SVG 1.1//EN" "http://www.w3.org/Graphics/SVG/1.1/DTD/svg11.dtd"><svg t="1526884985110" class="icon" style="" viewBox="0 0 1228 1024" version="1.1" xmlns="http://www.w3.org/2000/svg" p-id="1113" xmlns:xlink="http://www.w3.org/1999/xlink" width="239.84375" height="200"><defs><style type="text/css"></style></defs><path d="M843.1616 68.266667H989.866667a170.666667 170.666667 0 0 1 170.666666 170.666666v152.8832a34.133333 34.133333 0 1 0 68.266667 0V238.933333a238.933333 238.933333 0 0 0-238.933333-238.933333h-146.705067a34.133333 34.133333 0 0 0 0 68.266667zM1160.533333 629.3504V785.066667a170.666667 170.666667 0 0 1-170.666666 170.666666h-123.5968a34.133333 34.133333 0 0 0 0 68.266667H989.866667a238.933333 238.933333 0 0 0 238.933333-238.933333v-155.716267a34.133333 34.133333 0 1 0-68.266667 0zM393.4208 955.733333H238.933333a170.666667 170.666667 0 0 1-170.666666-170.666666v-155.136a34.133333 34.133333 0 0 0-68.266667 0V785.066667a238.933333 238.933333 0 0 0 238.933333 238.933333h154.487467a34.133333 34.133333 0 0 0 0-68.266667zM68.266667 393.045333V238.933333a170.666667 170.666667 0 0 1 170.666666-170.666666h147.933867a34.133333 34.133333 0 0 0 0-68.266667H238.933333a238.933333 238.933333 0 0 0-238.933333 238.933333v154.112a34.133333 34.133333 0 1 0 68.266667 0z" p-id="1114"></path></svg>