<?xml version="1.0" standalone="no"?><!DOCTYPE svg PUBLIC "-//W3C//DTD SVG 1.1//EN" "http://www.w3.org/Graphics/SVG/1.1/DTD/svg11.dtd"><svg t="1534871249923" class="icon" style="" viewBox="0 0 1024 1024" version="1.1" xmlns="http://www.w3.org/2000/svg" p-id="13540" xmlns:xlink="http://www.w3.org/1999/xlink" width="200" height="200"><defs><style type="text/css"></style></defs><path d="M987.367936 329.187328l0 146.276352q0 14.856192-10.856448 25.71264t-25.71264 10.856448l-36.569088 0q-14.856192 0-25.71264-10.856448t-10.856448-25.71264l0-146.276352q0-60.567552-42.8544-103.421952t-103.421952-42.8544-103.421952 42.8544-42.8544 103.421952l0 109.707264 54.853632 0q22.85568 0 38.854656 15.998976t15.998976 38.854656l0 329.121792q0 22.85568-15.998976 38.854656t-38.854656 15.998976l-548.53632 0q-22.85568 0-38.854656-15.998976t-15.998976-38.854656l0-329.121792q0-22.85568 15.998976-38.854656t38.854656-15.998976l383.975424 0 0-109.707264q0-105.70752 75.138048-180.845568t180.845568-75.138048 180.845568 75.138048 75.138048 180.845568z" p-id="13541"></path></svg>