<?xml version="1.0" standalone="no"?><!DOCTYPE svg PUBLIC "-//W3C//DTD SVG 1.1//EN" "http://www.w3.org/Graphics/SVG/1.1/DTD/svg11.dtd"><svg t="1534951898523" class="icon" style="" viewBox="0 0 1024 1024" version="1.1" xmlns="http://www.w3.org/2000/svg" p-id="4743" xmlns:xlink="http://www.w3.org/1999/xlink" width="200" height="200"><defs><style type="text/css"></style></defs><path d="M621.7511 201.142857l0 621.714286q0 14.848-10.825143 25.746286t-25.746286 10.825143-25.746286-10.825143l-190.317714-190.317714-149.723429 0q-14.848 0-25.746286-10.825143t-10.825143-25.746286l0-219.428571q0-14.848 10.825143-25.746286t25.746286-10.825143l149.723429 0 190.317714-190.317714q10.825143-10.825143 25.746286-10.825143t25.746286 10.825143 10.825143 25.746286zM841.179671 512q0 43.446857-24.283429 80.822857t-64.292571 53.394286q-5.705143 2.852571-14.262857 2.852571-14.848 0-25.746286-10.605714t-10.825143-25.965714q0-11.995429 6.875429-20.260571t16.603429-14.262857 19.456-13.165714 16.603429-20.260571 6.875429-32.548571-6.875429-32.548571-16.603429-20.260571-19.456-13.165714-16.603429-14.262857-6.875429-20.260571q0-15.433143 10.825143-25.965714t25.746286-10.605714q8.557714 0 14.262857 2.852571 40.009143 15.433143 64.292571 53.174857t24.283429 81.115429z" p-id="4744"></path></svg>